<mxfile host="app.diagrams.net" modified="2024-06-07T06:11:21.864Z" agent="Mozilla/5.0 (Windows NT 10.0; Win64; x64) AppleWebKit/537.36 (KHTML, like Gecko) Chrome/122.0.0.0 Safari/537.36" etag="KK-CzufgfJkbyW3JbOqA" version="24.4.4" type="device">
  <diagram name="Page-1" id="u8biGgO9w0412EeBGVbl">
    <mxGraphModel dx="1615" dy="877" grid="1" gridSize="10" guides="1" tooltips="1" connect="1" arrows="1" fold="1" page="1" pageScale="1" pageWidth="827" pageHeight="1169" math="0" shadow="0">
      <root>
        <mxCell id="0" />
        <mxCell id="1" parent="0" />
        <mxCell id="jg1KxQME6RHvL2GBumyO-1" value="" style="rounded=0;whiteSpace=wrap;html=1;" vertex="1" parent="1">
          <mxGeometry x="320" y="240" width="240" height="470" as="geometry" />
        </mxCell>
        <mxCell id="jg1KxQME6RHvL2GBumyO-3" value="mechanic.php" style="text;html=1;align=center;verticalAlign=middle;whiteSpace=wrap;rounded=0;" vertex="1" parent="1">
          <mxGeometry x="380" y="705" width="120" height="30" as="geometry" />
        </mxCell>
        <mxCell id="jg1KxQME6RHvL2GBumyO-5" value="" style="rounded=0;whiteSpace=wrap;html=1;" vertex="1" parent="1">
          <mxGeometry x="320" y="240" width="240" height="40" as="geometry" />
        </mxCell>
        <mxCell id="jg1KxQME6RHvL2GBumyO-6" value="" style="endArrow=none;html=1;rounded=0;strokeWidth=3;" edge="1" parent="1">
          <mxGeometry width="50" height="50" relative="1" as="geometry">
            <mxPoint x="530" y="250" as="sourcePoint" />
            <mxPoint x="550" y="250" as="targetPoint" />
          </mxGeometry>
        </mxCell>
        <mxCell id="jg1KxQME6RHvL2GBumyO-9" value="" style="endArrow=none;html=1;rounded=0;strokeWidth=3;" edge="1" parent="1">
          <mxGeometry width="50" height="50" relative="1" as="geometry">
            <mxPoint x="530" y="260" as="sourcePoint" />
            <mxPoint x="550" y="259.76" as="targetPoint" />
          </mxGeometry>
        </mxCell>
        <mxCell id="jg1KxQME6RHvL2GBumyO-10" value="" style="endArrow=none;html=1;rounded=0;strokeWidth=3;" edge="1" parent="1">
          <mxGeometry width="50" height="50" relative="1" as="geometry">
            <mxPoint x="530" y="270" as="sourcePoint" />
            <mxPoint x="550" y="270" as="targetPoint" />
          </mxGeometry>
        </mxCell>
        <mxCell id="jg1KxQME6RHvL2GBumyO-11" value="" style="rounded=0;whiteSpace=wrap;html=1;" vertex="1" parent="1">
          <mxGeometry x="320" y="310" width="240" height="30" as="geometry" />
        </mxCell>
        <mxCell id="jg1KxQME6RHvL2GBumyO-13" value="Aktiva" style="text;html=1;align=center;verticalAlign=middle;whiteSpace=wrap;rounded=0;" vertex="1" parent="1">
          <mxGeometry x="410" y="280" width="60" height="30" as="geometry" />
        </mxCell>
        <mxCell id="jg1KxQME6RHvL2GBumyO-14" value="XYZ-581 Skoda Octavia" style="text;html=1;align=center;verticalAlign=middle;whiteSpace=wrap;rounded=0;" vertex="1" parent="1">
          <mxGeometry x="320" y="310" width="170" height="30" as="geometry" />
        </mxCell>
        <mxCell id="jg1KxQME6RHvL2GBumyO-15" value="Läs Mera" style="rounded=0;whiteSpace=wrap;html=1;" vertex="1" parent="1">
          <mxGeometry x="490" y="310" width="70" height="30" as="geometry" />
        </mxCell>
        <mxCell id="jg1KxQME6RHvL2GBumyO-16" value="" style="rounded=0;whiteSpace=wrap;html=1;" vertex="1" parent="1">
          <mxGeometry x="320" y="340" width="240" height="30" as="geometry" />
        </mxCell>
        <mxCell id="jg1KxQME6RHvL2GBumyO-17" value="XYZ-581 Skoda Octavia" style="text;html=1;align=center;verticalAlign=middle;whiteSpace=wrap;rounded=0;" vertex="1" parent="1">
          <mxGeometry x="320" y="340" width="170" height="30" as="geometry" />
        </mxCell>
        <mxCell id="jg1KxQME6RHvL2GBumyO-18" value="Läs Mera" style="rounded=0;whiteSpace=wrap;html=1;" vertex="1" parent="1">
          <mxGeometry x="490" y="340" width="70" height="30" as="geometry" />
        </mxCell>
        <mxCell id="jg1KxQME6RHvL2GBumyO-19" value="" style="rounded=0;whiteSpace=wrap;html=1;" vertex="1" parent="1">
          <mxGeometry x="320" y="370" width="240" height="30" as="geometry" />
        </mxCell>
        <mxCell id="jg1KxQME6RHvL2GBumyO-20" value="XYZ-581 Skoda Octavia" style="text;html=1;align=center;verticalAlign=middle;whiteSpace=wrap;rounded=0;" vertex="1" parent="1">
          <mxGeometry x="320" y="370" width="170" height="30" as="geometry" />
        </mxCell>
        <mxCell id="jg1KxQME6RHvL2GBumyO-21" value="Läs Mera" style="rounded=0;whiteSpace=wrap;html=1;" vertex="1" parent="1">
          <mxGeometry x="490" y="370" width="70" height="30" as="geometry" />
        </mxCell>
        <mxCell id="jg1KxQME6RHvL2GBumyO-22" value="" style="endArrow=none;html=1;rounded=0;entryX=1;entryY=0.5;entryDx=0;entryDy=0;exitX=0;exitY=0.5;exitDx=0;exitDy=0;" edge="1" parent="1">
          <mxGeometry width="50" height="50" relative="1" as="geometry">
            <mxPoint x="320" y="458.82" as="sourcePoint" />
            <mxPoint x="560" y="458.82" as="targetPoint" />
          </mxGeometry>
        </mxCell>
        <mxCell id="jg1KxQME6RHvL2GBumyO-23" value="" style="rounded=0;whiteSpace=wrap;html=1;" vertex="1" parent="1">
          <mxGeometry x="320" y="490" width="240" height="30" as="geometry" />
        </mxCell>
        <mxCell id="jg1KxQME6RHvL2GBumyO-24" value="Peter Niklas Toyota Hilux" style="text;html=1;align=center;verticalAlign=middle;whiteSpace=wrap;rounded=0;" vertex="1" parent="1">
          <mxGeometry x="320" y="490" width="170" height="30" as="geometry" />
        </mxCell>
        <mxCell id="jg1KxQME6RHvL2GBumyO-25" value="Läs Mera" style="rounded=0;whiteSpace=wrap;html=1;" vertex="1" parent="1">
          <mxGeometry x="490" y="490" width="70" height="30" as="geometry" />
        </mxCell>
        <mxCell id="jg1KxQME6RHvL2GBumyO-32" value="I kö" style="text;html=1;align=center;verticalAlign=middle;whiteSpace=wrap;rounded=0;" vertex="1" parent="1">
          <mxGeometry x="410" y="460" width="60" height="30" as="geometry" />
        </mxCell>
        <mxCell id="jg1KxQME6RHvL2GBumyO-33" value="" style="rounded=0;whiteSpace=wrap;html=1;" vertex="1" parent="1">
          <mxGeometry x="320" y="520" width="240" height="30" as="geometry" />
        </mxCell>
        <mxCell id="jg1KxQME6RHvL2GBumyO-34" value="Peter Niklas Toyota Hilux" style="text;html=1;align=center;verticalAlign=middle;whiteSpace=wrap;rounded=0;" vertex="1" parent="1">
          <mxGeometry x="320" y="520" width="170" height="30" as="geometry" />
        </mxCell>
        <mxCell id="jg1KxQME6RHvL2GBumyO-35" value="Läs Mera" style="rounded=0;whiteSpace=wrap;html=1;" vertex="1" parent="1">
          <mxGeometry x="490" y="520" width="70" height="30" as="geometry" />
        </mxCell>
        <mxCell id="jg1KxQME6RHvL2GBumyO-39" value="" style="rounded=0;whiteSpace=wrap;html=1;" vertex="1" parent="1">
          <mxGeometry x="320" y="550" width="240" height="30" as="geometry" />
        </mxCell>
        <mxCell id="jg1KxQME6RHvL2GBumyO-40" value="Peter Niklas Toyota Hilux" style="text;html=1;align=center;verticalAlign=middle;whiteSpace=wrap;rounded=0;" vertex="1" parent="1">
          <mxGeometry x="320" y="550" width="170" height="30" as="geometry" />
        </mxCell>
        <mxCell id="jg1KxQME6RHvL2GBumyO-41" value="Läs Mera" style="rounded=0;whiteSpace=wrap;html=1;" vertex="1" parent="1">
          <mxGeometry x="490" y="550" width="70" height="30" as="geometry" />
        </mxCell>
        <mxCell id="jg1KxQME6RHvL2GBumyO-46" value="" style="rounded=0;whiteSpace=wrap;html=1;" vertex="1" parent="1">
          <mxGeometry x="240" y="20" width="120" height="180" as="geometry" />
        </mxCell>
        <mxCell id="jg1KxQME6RHvL2GBumyO-47" value="Home" style="rounded=0;whiteSpace=wrap;html=1;" vertex="1" parent="1">
          <mxGeometry x="240" y="20" width="120" height="30" as="geometry" />
        </mxCell>
        <mxCell id="jg1KxQME6RHvL2GBumyO-48" value="Mekaniker" style="rounded=0;whiteSpace=wrap;html=1;" vertex="1" parent="1">
          <mxGeometry x="240" y="50" width="120" height="30" as="geometry" />
        </mxCell>
        <mxCell id="jg1KxQME6RHvL2GBumyO-49" value="Bokförare" style="rounded=0;whiteSpace=wrap;html=1;" vertex="1" parent="1">
          <mxGeometry x="240" y="80" width="120" height="30" as="geometry" />
        </mxCell>
        <mxCell id="jg1KxQME6RHvL2GBumyO-52" value="" style="rounded=0;whiteSpace=wrap;html=1;" vertex="1" parent="1">
          <mxGeometry x="40" y="240" width="240" height="440" as="geometry" />
        </mxCell>
        <mxCell id="jg1KxQME6RHvL2GBumyO-53" value="index.php" style="text;html=1;align=center;verticalAlign=middle;whiteSpace=wrap;rounded=0;" vertex="1" parent="1">
          <mxGeometry x="100" y="690" width="120" height="30" as="geometry" />
        </mxCell>
        <mxCell id="jg1KxQME6RHvL2GBumyO-54" value="" style="rounded=0;whiteSpace=wrap;html=1;" vertex="1" parent="1">
          <mxGeometry x="40" y="240" width="240" height="40" as="geometry" />
        </mxCell>
        <mxCell id="jg1KxQME6RHvL2GBumyO-55" value="" style="endArrow=none;html=1;rounded=0;strokeWidth=3;" edge="1" parent="1">
          <mxGeometry width="50" height="50" relative="1" as="geometry">
            <mxPoint x="250" y="250" as="sourcePoint" />
            <mxPoint x="270" y="250" as="targetPoint" />
          </mxGeometry>
        </mxCell>
        <mxCell id="jg1KxQME6RHvL2GBumyO-56" value="" style="endArrow=none;html=1;rounded=0;strokeWidth=3;" edge="1" parent="1">
          <mxGeometry width="50" height="50" relative="1" as="geometry">
            <mxPoint x="250" y="260" as="sourcePoint" />
            <mxPoint x="270" y="259.76" as="targetPoint" />
          </mxGeometry>
        </mxCell>
        <mxCell id="jg1KxQME6RHvL2GBumyO-79" value="" style="endArrow=none;html=1;rounded=0;strokeWidth=3;" edge="1" parent="1">
          <mxGeometry width="50" height="50" relative="1" as="geometry">
            <mxPoint x="250" y="270.12" as="sourcePoint" />
            <mxPoint x="270" y="269.88" as="targetPoint" />
          </mxGeometry>
        </mxCell>
        <mxCell id="jg1KxQME6RHvL2GBumyO-83" value="Mekaniker" style="rounded=1;whiteSpace=wrap;html=1;" vertex="1" parent="1">
          <mxGeometry x="100" y="300" width="120" height="40" as="geometry" />
        </mxCell>
        <mxCell id="jg1KxQME6RHvL2GBumyO-84" value="Chef" style="rounded=1;whiteSpace=wrap;html=1;" vertex="1" parent="1">
          <mxGeometry x="100" y="420" width="120" height="40" as="geometry" />
        </mxCell>
        <mxCell id="jg1KxQME6RHvL2GBumyO-85" value="Bokförare" style="rounded=1;whiteSpace=wrap;html=1;" vertex="1" parent="1">
          <mxGeometry x="100" y="360" width="120" height="40" as="geometry" />
        </mxCell>
        <mxCell id="jg1KxQME6RHvL2GBumyO-91" value="Chef" style="rounded=0;whiteSpace=wrap;html=1;" vertex="1" parent="1">
          <mxGeometry x="240" y="110" width="120" height="30" as="geometry" />
        </mxCell>
        <mxCell id="jg1KxQME6RHvL2GBumyO-92" value="Logout" style="rounded=0;whiteSpace=wrap;html=1;" vertex="1" parent="1">
          <mxGeometry x="240" y="170" width="120" height="30" as="geometry" />
        </mxCell>
        <mxCell id="jg1KxQME6RHvL2GBumyO-95" value="Username" style="text;html=1;align=center;verticalAlign=middle;whiteSpace=wrap;rounded=0;" vertex="1" parent="1">
          <mxGeometry x="40" y="240" width="80" height="40" as="geometry" />
        </mxCell>
        <mxCell id="jg1KxQME6RHvL2GBumyO-97" value="" style="rounded=0;whiteSpace=wrap;html=1;" vertex="1" parent="1">
          <mxGeometry x="70" y="517.5" width="180" height="145" as="geometry" />
        </mxCell>
        <mxCell id="jg1KxQME6RHvL2GBumyO-98" value="Username/email" style="rounded=0;whiteSpace=wrap;html=1;" vertex="1" parent="1">
          <mxGeometry x="90" y="532.5" width="140" height="30" as="geometry" />
        </mxCell>
        <mxCell id="jg1KxQME6RHvL2GBumyO-99" value="Password" style="rounded=0;whiteSpace=wrap;html=1;" vertex="1" parent="1">
          <mxGeometry x="90" y="572.5" width="140" height="30" as="geometry" />
        </mxCell>
        <mxCell id="jg1KxQME6RHvL2GBumyO-101" value="Login" style="rounded=0;whiteSpace=wrap;html=1;" vertex="1" parent="1">
          <mxGeometry x="170" y="617.5" width="60" height="30" as="geometry" />
        </mxCell>
        <mxCell id="jg1KxQME6RHvL2GBumyO-105" value="" style="rounded=0;whiteSpace=wrap;html=1;" vertex="1" parent="1">
          <mxGeometry x="640" y="240" width="240" height="440" as="geometry" />
        </mxCell>
        <mxCell id="jg1KxQME6RHvL2GBumyO-106" value="accounting.php" style="text;html=1;align=center;verticalAlign=middle;whiteSpace=wrap;rounded=0;" vertex="1" parent="1">
          <mxGeometry x="700" y="690" width="120" height="30" as="geometry" />
        </mxCell>
        <mxCell id="jg1KxQME6RHvL2GBumyO-107" value="" style="rounded=0;whiteSpace=wrap;html=1;" vertex="1" parent="1">
          <mxGeometry x="640" y="240" width="240" height="40" as="geometry" />
        </mxCell>
        <mxCell id="jg1KxQME6RHvL2GBumyO-108" value="" style="endArrow=none;html=1;rounded=0;strokeWidth=3;" edge="1" parent="1">
          <mxGeometry width="50" height="50" relative="1" as="geometry">
            <mxPoint x="850" y="250" as="sourcePoint" />
            <mxPoint x="870" y="250" as="targetPoint" />
          </mxGeometry>
        </mxCell>
        <mxCell id="jg1KxQME6RHvL2GBumyO-109" value="" style="endArrow=none;html=1;rounded=0;strokeWidth=3;" edge="1" parent="1">
          <mxGeometry width="50" height="50" relative="1" as="geometry">
            <mxPoint x="850" y="260" as="sourcePoint" />
            <mxPoint x="870" y="259.76" as="targetPoint" />
          </mxGeometry>
        </mxCell>
        <mxCell id="jg1KxQME6RHvL2GBumyO-110" value="" style="endArrow=none;html=1;rounded=0;strokeWidth=3;" edge="1" parent="1">
          <mxGeometry width="50" height="50" relative="1" as="geometry">
            <mxPoint x="850" y="270" as="sourcePoint" />
            <mxPoint x="870" y="270" as="targetPoint" />
          </mxGeometry>
        </mxCell>
        <mxCell id="jg1KxQME6RHvL2GBumyO-132" value="" style="rounded=0;whiteSpace=wrap;html=1;" vertex="1" parent="1">
          <mxGeometry x="960" y="130" width="240" height="570" as="geometry" />
        </mxCell>
        <mxCell id="jg1KxQME6RHvL2GBumyO-133" value="&lt;font style=&quot;font-size: 16px;&quot;&gt;&lt;b&gt;Ofakturerade&lt;/b&gt;&lt;/font&gt;" style="rounded=0;whiteSpace=wrap;html=1;" vertex="1" parent="1">
          <mxGeometry x="640" y="280" width="240" height="30" as="geometry" />
        </mxCell>
        <mxCell id="jg1KxQME6RHvL2GBumyO-136" value="" style="rounded=0;whiteSpace=wrap;html=1;" vertex="1" parent="1">
          <mxGeometry x="640" y="310" width="240" height="190" as="geometry" />
        </mxCell>
        <mxCell id="jg1KxQME6RHvL2GBumyO-137" value="XYZ-581 Peter Niklas" style="text;html=1;align=center;verticalAlign=middle;whiteSpace=wrap;rounded=0;" vertex="1" parent="1">
          <mxGeometry x="640" y="310" width="170" height="40" as="geometry" />
        </mxCell>
        <mxCell id="jg1KxQME6RHvL2GBumyO-140" value="" style="shape=mxgraph.arrows2.wedgeArrow;html=1;bendable=0;startWidth=9.166666666666668;fillColor=strokeColor;defaultFillColor=invert;defaultGradientColor=invert;rounded=0;" edge="1" parent="1">
          <mxGeometry width="100" height="100" relative="1" as="geometry">
            <mxPoint x="850" y="335" as="sourcePoint" />
            <mxPoint x="850" y="315" as="targetPoint" />
          </mxGeometry>
        </mxCell>
        <mxCell id="jg1KxQME6RHvL2GBumyO-141" value="" style="rounded=0;whiteSpace=wrap;html=1;" vertex="1" parent="1">
          <mxGeometry x="640" y="500" width="240" height="40" as="geometry" />
        </mxCell>
        <mxCell id="jg1KxQME6RHvL2GBumyO-142" value="XYZ-581 Peter Niklas" style="text;html=1;align=center;verticalAlign=middle;whiteSpace=wrap;rounded=0;" vertex="1" parent="1">
          <mxGeometry x="640" y="500" width="170" height="40" as="geometry" />
        </mxCell>
        <mxCell id="jg1KxQME6RHvL2GBumyO-143" value="" style="shape=mxgraph.arrows2.wedgeArrow;html=1;bendable=0;startWidth=9.166666666666668;fillColor=strokeColor;defaultFillColor=invert;defaultGradientColor=invert;rounded=0;" edge="1" parent="1">
          <mxGeometry width="100" height="100" relative="1" as="geometry">
            <mxPoint x="850" y="510" as="sourcePoint" />
            <mxPoint x="850" y="530" as="targetPoint" />
          </mxGeometry>
        </mxCell>
        <mxCell id="jg1KxQME6RHvL2GBumyO-149" value="Peter Niklas | p.n@gmail.com | 0445281352" style="text;html=1;align=center;verticalAlign=middle;whiteSpace=wrap;rounded=0;" vertex="1" parent="1">
          <mxGeometry x="640" y="350" width="240" height="30" as="geometry" />
        </mxCell>
        <mxCell id="jg1KxQME6RHvL2GBumyO-150" value="XYZ-581 | Toyota Hilux" style="text;html=1;align=center;verticalAlign=middle;whiteSpace=wrap;rounded=0;" vertex="1" parent="1">
          <mxGeometry x="640" y="380" width="240" height="30" as="geometry" />
        </mxCell>
        <mxCell id="jg1KxQME6RHvL2GBumyO-151" value="1000 €" style="text;html=1;align=center;verticalAlign=middle;whiteSpace=wrap;rounded=0;" vertex="1" parent="1">
          <mxGeometry x="640" y="410" width="240" height="30" as="geometry" />
        </mxCell>
        <mxCell id="jg1KxQME6RHvL2GBumyO-152" value="" style="rounded=0;whiteSpace=wrap;html=1;" vertex="1" parent="1">
          <mxGeometry x="650" y="450" width="100" height="30" as="geometry" />
        </mxCell>
        <mxCell id="jg1KxQME6RHvL2GBumyO-153" value="Ofakturerad" style="text;html=1;align=center;verticalAlign=middle;whiteSpace=wrap;rounded=0;" vertex="1" parent="1">
          <mxGeometry x="660" y="450" width="60" height="30" as="geometry" />
        </mxCell>
        <mxCell id="jg1KxQME6RHvL2GBumyO-155" value="" style="shape=mxgraph.arrows2.wedgeArrow;html=1;bendable=0;startWidth=4.651162790697676;fillColor=strokeColor;defaultFillColor=invert;defaultGradientColor=invert;rounded=0;" edge="1" parent="1">
          <mxGeometry width="100" height="100" relative="1" as="geometry">
            <mxPoint x="740" y="460" as="sourcePoint" />
            <mxPoint x="740" y="470" as="targetPoint" />
          </mxGeometry>
        </mxCell>
        <mxCell id="jg1KxQME6RHvL2GBumyO-156" value="Uppdatera Status" style="rounded=0;whiteSpace=wrap;html=1;" vertex="1" parent="1">
          <mxGeometry x="770" y="450" width="100" height="30" as="geometry" />
        </mxCell>
        <mxCell id="jg1KxQME6RHvL2GBumyO-159" value="&lt;font style=&quot;font-size: 16px;&quot;&gt;&lt;b&gt;Fakturerade&lt;/b&gt;&lt;/font&gt;" style="rounded=0;whiteSpace=wrap;html=1;" vertex="1" parent="1">
          <mxGeometry x="640" y="540" width="240" height="30" as="geometry" />
        </mxCell>
        <mxCell id="jg1KxQME6RHvL2GBumyO-160" value="" style="rounded=0;whiteSpace=wrap;html=1;" vertex="1" parent="1">
          <mxGeometry x="640" y="570" width="240" height="40" as="geometry" />
        </mxCell>
        <mxCell id="jg1KxQME6RHvL2GBumyO-161" value="XYZ-581 Peter Niklas" style="text;html=1;align=center;verticalAlign=middle;whiteSpace=wrap;rounded=0;" vertex="1" parent="1">
          <mxGeometry x="640" y="570" width="170" height="40" as="geometry" />
        </mxCell>
        <mxCell id="jg1KxQME6RHvL2GBumyO-162" value="" style="shape=mxgraph.arrows2.wedgeArrow;html=1;bendable=0;startWidth=9.166666666666668;fillColor=strokeColor;defaultFillColor=invert;defaultGradientColor=invert;rounded=0;" edge="1" parent="1">
          <mxGeometry width="100" height="100" relative="1" as="geometry">
            <mxPoint x="850" y="580" as="sourcePoint" />
            <mxPoint x="850" y="600" as="targetPoint" />
          </mxGeometry>
        </mxCell>
        <mxCell id="jg1KxQME6RHvL2GBumyO-163" value="&lt;font style=&quot;font-size: 16px;&quot;&gt;&lt;b&gt;Betalda&lt;/b&gt;&lt;/font&gt;" style="rounded=0;whiteSpace=wrap;html=1;" vertex="1" parent="1">
          <mxGeometry x="640" y="610" width="240" height="30" as="geometry" />
        </mxCell>
        <mxCell id="jg1KxQME6RHvL2GBumyO-164" value="" style="rounded=0;whiteSpace=wrap;html=1;" vertex="1" parent="1">
          <mxGeometry x="640" y="640" width="240" height="40" as="geometry" />
        </mxCell>
        <mxCell id="jg1KxQME6RHvL2GBumyO-165" value="XYZ-581 Peter Niklas" style="text;html=1;align=center;verticalAlign=middle;whiteSpace=wrap;rounded=0;" vertex="1" parent="1">
          <mxGeometry x="640" y="640" width="170" height="40" as="geometry" />
        </mxCell>
        <mxCell id="jg1KxQME6RHvL2GBumyO-166" value="" style="shape=mxgraph.arrows2.wedgeArrow;html=1;bendable=0;startWidth=9.166666666666668;fillColor=strokeColor;defaultFillColor=invert;defaultGradientColor=invert;rounded=0;" edge="1" parent="1">
          <mxGeometry width="100" height="100" relative="1" as="geometry">
            <mxPoint x="850" y="650" as="sourcePoint" />
            <mxPoint x="850" y="670" as="targetPoint" />
          </mxGeometry>
        </mxCell>
        <mxCell id="jg1KxQME6RHvL2GBumyO-170" value="" style="rounded=0;whiteSpace=wrap;html=1;" vertex="1" parent="1">
          <mxGeometry x="960" y="130" width="240" height="40" as="geometry" />
        </mxCell>
        <mxCell id="jg1KxQME6RHvL2GBumyO-171" value="" style="endArrow=none;html=1;rounded=0;strokeWidth=3;" edge="1" parent="1">
          <mxGeometry width="50" height="50" relative="1" as="geometry">
            <mxPoint x="1170" y="140" as="sourcePoint" />
            <mxPoint x="1190" y="140" as="targetPoint" />
          </mxGeometry>
        </mxCell>
        <mxCell id="jg1KxQME6RHvL2GBumyO-172" value="" style="endArrow=none;html=1;rounded=0;strokeWidth=3;" edge="1" parent="1">
          <mxGeometry width="50" height="50" relative="1" as="geometry">
            <mxPoint x="1170" y="150" as="sourcePoint" />
            <mxPoint x="1190" y="149.76" as="targetPoint" />
          </mxGeometry>
        </mxCell>
        <mxCell id="jg1KxQME6RHvL2GBumyO-173" value="" style="endArrow=none;html=1;rounded=0;strokeWidth=3;" edge="1" parent="1">
          <mxGeometry width="50" height="50" relative="1" as="geometry">
            <mxPoint x="1170" y="160" as="sourcePoint" />
            <mxPoint x="1190" y="160" as="targetPoint" />
          </mxGeometry>
        </mxCell>
        <mxCell id="jg1KxQME6RHvL2GBumyO-174" value="boss.php" style="text;html=1;align=center;verticalAlign=middle;whiteSpace=wrap;rounded=0;" vertex="1" parent="1">
          <mxGeometry x="1020" y="700" width="120" height="30" as="geometry" />
        </mxCell>
        <mxCell id="jg1KxQME6RHvL2GBumyO-175" value="&lt;span style=&quot;font-size: 16px;&quot;&gt;&lt;b&gt;Arbets tid&lt;/b&gt;&lt;/span&gt;" style="rounded=0;whiteSpace=wrap;html=1;" vertex="1" parent="1">
          <mxGeometry x="960" y="170" width="240" height="30" as="geometry" />
        </mxCell>
        <mxCell id="jg1KxQME6RHvL2GBumyO-176" value="" style="rounded=0;whiteSpace=wrap;html=1;" vertex="1" parent="1">
          <mxGeometry x="960" y="200" width="240" height="190" as="geometry" />
        </mxCell>
        <mxCell id="jg1KxQME6RHvL2GBumyO-177" value="Gottfried Eriksson" style="text;html=1;align=center;verticalAlign=middle;whiteSpace=wrap;rounded=0;" vertex="1" parent="1">
          <mxGeometry x="960" y="200" width="170" height="40" as="geometry" />
        </mxCell>
        <mxCell id="jg1KxQME6RHvL2GBumyO-178" value="" style="shape=mxgraph.arrows2.wedgeArrow;html=1;bendable=0;startWidth=9.166666666666668;fillColor=strokeColor;defaultFillColor=invert;defaultGradientColor=invert;rounded=0;" edge="1" parent="1">
          <mxGeometry width="100" height="100" relative="1" as="geometry">
            <mxPoint x="1170" y="225" as="sourcePoint" />
            <mxPoint x="1170" y="205" as="targetPoint" />
          </mxGeometry>
        </mxCell>
        <mxCell id="jg1KxQME6RHvL2GBumyO-179" value="Kontrakt timmar per vecka" style="text;html=1;align=center;verticalAlign=middle;whiteSpace=wrap;rounded=0;" vertex="1" parent="1">
          <mxGeometry x="960" y="240" width="240" height="30" as="geometry" />
        </mxCell>
        <mxCell id="jg1KxQME6RHvL2GBumyO-180" value="Ifylda timmar senaste månaden" style="text;html=1;align=center;verticalAlign=middle;whiteSpace=wrap;rounded=0;" vertex="1" parent="1">
          <mxGeometry x="960" y="270" width="240" height="30" as="geometry" />
        </mxCell>
        <mxCell id="jg1KxQME6RHvL2GBumyO-181" value="1000 €" style="text;html=1;align=center;verticalAlign=middle;whiteSpace=wrap;rounded=0;" vertex="1" parent="1">
          <mxGeometry x="960" y="300" width="240" height="30" as="geometry" />
        </mxCell>
        <mxCell id="jg1KxQME6RHvL2GBumyO-185" value="Ändra Tid" style="rounded=0;whiteSpace=wrap;html=1;" vertex="1" parent="1">
          <mxGeometry x="1030" y="340" width="100" height="30" as="geometry" />
        </mxCell>
        <mxCell id="jg1KxQME6RHvL2GBumyO-186" value="" style="rounded=0;whiteSpace=wrap;html=1;" vertex="1" parent="1">
          <mxGeometry x="960" y="390" width="240" height="40" as="geometry" />
        </mxCell>
        <mxCell id="jg1KxQME6RHvL2GBumyO-187" value="Alfred Rosenqvist" style="text;html=1;align=center;verticalAlign=middle;whiteSpace=wrap;rounded=0;" vertex="1" parent="1">
          <mxGeometry x="960" y="390" width="170" height="40" as="geometry" />
        </mxCell>
        <mxCell id="jg1KxQME6RHvL2GBumyO-188" value="" style="shape=mxgraph.arrows2.wedgeArrow;html=1;bendable=0;startWidth=9.166666666666668;fillColor=strokeColor;defaultFillColor=invert;defaultGradientColor=invert;rounded=0;" edge="1" parent="1">
          <mxGeometry width="100" height="100" relative="1" as="geometry">
            <mxPoint x="1170" y="400" as="sourcePoint" />
            <mxPoint x="1170" y="420" as="targetPoint" />
          </mxGeometry>
        </mxCell>
        <mxCell id="jg1KxQME6RHvL2GBumyO-191" value="" style="endArrow=classic;html=1;rounded=0;entryX=0.5;entryY=1;entryDx=0;entryDy=0;" edge="1" parent="1" target="jg1KxQME6RHvL2GBumyO-92">
          <mxGeometry width="50" height="50" relative="1" as="geometry">
            <mxPoint x="270" y="250" as="sourcePoint" />
            <mxPoint x="310" y="240" as="targetPoint" />
          </mxGeometry>
        </mxCell>
        <mxCell id="jg1KxQME6RHvL2GBumyO-192" value="Register" style="rounded=0;whiteSpace=wrap;html=1;" vertex="1" parent="1">
          <mxGeometry x="90" y="617.5" width="60" height="30" as="geometry" />
        </mxCell>
        <mxCell id="jg1KxQME6RHvL2GBumyO-206" value="View All Cars" style="rounded=0;whiteSpace=wrap;html=1;" vertex="1" parent="1">
          <mxGeometry x="370" y="632.5" width="140" height="30" as="geometry" />
        </mxCell>
        <mxCell id="jg1KxQME6RHvL2GBumyO-208" value="" style="rounded=0;whiteSpace=wrap;html=1;" vertex="1" parent="1">
          <mxGeometry x="320" y="735" width="240" height="505" as="geometry" />
        </mxCell>
        <mxCell id="jg1KxQME6RHvL2GBumyO-209" value="newProject.php" style="text;html=1;align=center;verticalAlign=middle;whiteSpace=wrap;rounded=0;textShadow=1;" vertex="1" parent="1">
          <mxGeometry x="380" y="1260" width="120" height="30" as="geometry" />
        </mxCell>
        <mxCell id="jg1KxQME6RHvL2GBumyO-214" value="" style="rounded=0;whiteSpace=wrap;html=1;" vertex="1" parent="1">
          <mxGeometry x="350" y="790" width="180" height="130" as="geometry" />
        </mxCell>
        <mxCell id="jg1KxQME6RHvL2GBumyO-215" value="" style="rounded=0;whiteSpace=wrap;html=1;" vertex="1" parent="1">
          <mxGeometry x="360" y="800" width="160" height="40" as="geometry" />
        </mxCell>
        <mxCell id="jg1KxQME6RHvL2GBumyO-216" value="Choose Existing Customer" style="text;html=1;align=center;verticalAlign=middle;whiteSpace=wrap;rounded=0;" vertex="1" parent="1">
          <mxGeometry x="365" y="804.5" width="150" height="30" as="geometry" />
        </mxCell>
        <mxCell id="jg1KxQME6RHvL2GBumyO-218" style="edgeStyle=orthogonalEdgeStyle;rounded=0;orthogonalLoop=1;jettySize=auto;html=1;exitX=0.5;exitY=1;exitDx=0;exitDy=0;" edge="1" parent="1" source="jg1KxQME6RHvL2GBumyO-216" target="jg1KxQME6RHvL2GBumyO-216">
          <mxGeometry relative="1" as="geometry" />
        </mxCell>
        <mxCell id="jg1KxQME6RHvL2GBumyO-219" value="" style="rounded=0;whiteSpace=wrap;html=1;" vertex="1" parent="1">
          <mxGeometry x="360" y="860" width="160" height="40" as="geometry" />
        </mxCell>
        <mxCell id="jg1KxQME6RHvL2GBumyO-217" value="Create New Customer" style="text;html=1;align=center;verticalAlign=middle;whiteSpace=wrap;rounded=0;" vertex="1" parent="1">
          <mxGeometry x="365" y="865" width="150" height="30" as="geometry" />
        </mxCell>
        <mxCell id="jg1KxQME6RHvL2GBumyO-220" value="" style="rounded=0;whiteSpace=wrap;html=1;" vertex="1" parent="1">
          <mxGeometry x="320" y="735" width="240" height="40" as="geometry" />
        </mxCell>
        <mxCell id="jg1KxQME6RHvL2GBumyO-221" value="" style="endArrow=none;html=1;rounded=0;strokeWidth=3;" edge="1" parent="1">
          <mxGeometry width="50" height="50" relative="1" as="geometry">
            <mxPoint x="530" y="745" as="sourcePoint" />
            <mxPoint x="550" y="745" as="targetPoint" />
          </mxGeometry>
        </mxCell>
        <mxCell id="jg1KxQME6RHvL2GBumyO-222" value="" style="endArrow=none;html=1;rounded=0;strokeWidth=3;" edge="1" parent="1">
          <mxGeometry width="50" height="50" relative="1" as="geometry">
            <mxPoint x="530" y="755" as="sourcePoint" />
            <mxPoint x="550" y="754.76" as="targetPoint" />
          </mxGeometry>
        </mxCell>
        <mxCell id="jg1KxQME6RHvL2GBumyO-223" value="" style="endArrow=none;html=1;rounded=0;strokeWidth=3;" edge="1" parent="1">
          <mxGeometry width="50" height="50" relative="1" as="geometry">
            <mxPoint x="530" y="765.12" as="sourcePoint" />
            <mxPoint x="550" y="764.88" as="targetPoint" />
          </mxGeometry>
        </mxCell>
        <mxCell id="jg1KxQME6RHvL2GBumyO-224" value="Username" style="text;html=1;align=center;verticalAlign=middle;whiteSpace=wrap;rounded=0;" vertex="1" parent="1">
          <mxGeometry x="320" y="735" width="80" height="40" as="geometry" />
        </mxCell>
        <mxCell id="jg1KxQME6RHvL2GBumyO-225" value="" style="rounded=0;whiteSpace=wrap;html=1;" vertex="1" parent="1">
          <mxGeometry x="630" y="860" width="220" height="210" as="geometry" />
        </mxCell>
        <mxCell id="jg1KxQME6RHvL2GBumyO-226" value="Customer First Name" style="rounded=0;whiteSpace=wrap;html=1;" vertex="1" parent="1">
          <mxGeometry x="640" y="870" width="200" height="30" as="geometry" />
        </mxCell>
        <mxCell id="jg1KxQME6RHvL2GBumyO-227" value="Customer Last Name" style="rounded=0;whiteSpace=wrap;html=1;" vertex="1" parent="1">
          <mxGeometry x="640" y="910" width="200" height="30" as="geometry" />
        </mxCell>
        <mxCell id="jg1KxQME6RHvL2GBumyO-228" value="Customer Phone Number" style="rounded=0;whiteSpace=wrap;html=1;" vertex="1" parent="1">
          <mxGeometry x="640" y="950" width="200" height="30" as="geometry" />
        </mxCell>
        <mxCell id="jg1KxQME6RHvL2GBumyO-229" value="Customer Email" style="rounded=0;whiteSpace=wrap;html=1;" vertex="1" parent="1">
          <mxGeometry x="640" y="990" width="200" height="30" as="geometry" />
        </mxCell>
        <mxCell id="jg1KxQME6RHvL2GBumyO-230" value="Insert New Customer" style="rounded=0;whiteSpace=wrap;html=1;" vertex="1" parent="1">
          <mxGeometry x="680" y="1030" width="120" height="30" as="geometry" />
        </mxCell>
        <mxCell id="jg1KxQME6RHvL2GBumyO-231" value="" style="endArrow=classic;html=1;rounded=0;entryX=0;entryY=0.5;entryDx=0;entryDy=0;exitX=1;exitY=0.5;exitDx=0;exitDy=0;" edge="1" parent="1" source="jg1KxQME6RHvL2GBumyO-219" target="jg1KxQME6RHvL2GBumyO-225">
          <mxGeometry width="50" height="50" relative="1" as="geometry">
            <mxPoint x="380" y="980" as="sourcePoint" />
            <mxPoint x="430" y="930" as="targetPoint" />
            <Array as="points">
              <mxPoint x="590" y="880" />
              <mxPoint x="590" y="965" />
            </Array>
          </mxGeometry>
        </mxCell>
        <mxCell id="jg1KxQME6RHvL2GBumyO-232" value="En modal var man skapar ny kund eller bil" style="text;html=1;align=center;verticalAlign=middle;whiteSpace=wrap;rounded=0;" vertex="1" parent="1">
          <mxGeometry x="630" y="800" width="220" height="50" as="geometry" />
        </mxCell>
        <mxCell id="jg1KxQME6RHvL2GBumyO-233" value="" style="rounded=0;whiteSpace=wrap;html=1;" vertex="1" parent="1">
          <mxGeometry x="350" y="930" width="180" height="130" as="geometry" />
        </mxCell>
        <mxCell id="jg1KxQME6RHvL2GBumyO-234" value="" style="rounded=0;whiteSpace=wrap;html=1;" vertex="1" parent="1">
          <mxGeometry x="360" y="940" width="160" height="40" as="geometry" />
        </mxCell>
        <mxCell id="jg1KxQME6RHvL2GBumyO-235" value="Choose Existing Car" style="text;html=1;align=center;verticalAlign=middle;whiteSpace=wrap;rounded=0;" vertex="1" parent="1">
          <mxGeometry x="365" y="944.5" width="150" height="30" as="geometry" />
        </mxCell>
        <mxCell id="jg1KxQME6RHvL2GBumyO-236" style="edgeStyle=orthogonalEdgeStyle;rounded=0;orthogonalLoop=1;jettySize=auto;html=1;exitX=0.5;exitY=1;exitDx=0;exitDy=0;" edge="1" parent="1" source="jg1KxQME6RHvL2GBumyO-235" target="jg1KxQME6RHvL2GBumyO-235">
          <mxGeometry relative="1" as="geometry" />
        </mxCell>
        <mxCell id="jg1KxQME6RHvL2GBumyO-237" value="" style="rounded=0;whiteSpace=wrap;html=1;" vertex="1" parent="1">
          <mxGeometry x="360" y="1000" width="160" height="40" as="geometry" />
        </mxCell>
        <mxCell id="jg1KxQME6RHvL2GBumyO-238" value="Create New Car" style="text;html=1;align=center;verticalAlign=middle;whiteSpace=wrap;rounded=0;" vertex="1" parent="1">
          <mxGeometry x="365" y="1005" width="150" height="30" as="geometry" />
        </mxCell>
        <mxCell id="jg1KxQME6RHvL2GBumyO-239" value="" style="rounded=0;whiteSpace=wrap;html=1;" vertex="1" parent="1">
          <mxGeometry x="630" y="1080" width="220" height="170" as="geometry" />
        </mxCell>
        <mxCell id="jg1KxQME6RHvL2GBumyO-240" value="Car Brand" style="rounded=0;whiteSpace=wrap;html=1;" vertex="1" parent="1">
          <mxGeometry x="640" y="1090" width="200" height="30" as="geometry" />
        </mxCell>
        <mxCell id="jg1KxQME6RHvL2GBumyO-241" value="Car Model" style="rounded=0;whiteSpace=wrap;html=1;" vertex="1" parent="1">
          <mxGeometry x="640" y="1130" width="200" height="30" as="geometry" />
        </mxCell>
        <mxCell id="jg1KxQME6RHvL2GBumyO-242" value="Car License Number" style="rounded=0;whiteSpace=wrap;html=1;" vertex="1" parent="1">
          <mxGeometry x="640" y="1170" width="200" height="30" as="geometry" />
        </mxCell>
        <mxCell id="jg1KxQME6RHvL2GBumyO-244" value="Insert New Customer" style="rounded=0;whiteSpace=wrap;html=1;" vertex="1" parent="1">
          <mxGeometry x="680" y="1210" width="120" height="30" as="geometry" />
        </mxCell>
        <mxCell id="jg1KxQME6RHvL2GBumyO-245" value="Insert new Project" style="rounded=0;whiteSpace=wrap;html=1;" vertex="1" parent="1">
          <mxGeometry x="360" y="1190" width="160" height="30" as="geometry" />
        </mxCell>
        <mxCell id="jg1KxQME6RHvL2GBumyO-246" value="Problem Description" style="rounded=0;whiteSpace=wrap;html=1;" vertex="1" parent="1">
          <mxGeometry x="360" y="1090" width="160" height="80" as="geometry" />
        </mxCell>
        <mxCell id="jg1KxQME6RHvL2GBumyO-247" value="" style="endArrow=classic;html=1;rounded=0;entryX=-0.004;entryY=0.326;entryDx=0;entryDy=0;entryPerimeter=0;exitX=1;exitY=0.5;exitDx=0;exitDy=0;" edge="1" parent="1" source="jg1KxQME6RHvL2GBumyO-237" target="jg1KxQME6RHvL2GBumyO-239">
          <mxGeometry width="50" height="50" relative="1" as="geometry">
            <mxPoint x="600" y="990" as="sourcePoint" />
            <mxPoint x="530" y="1030" as="targetPoint" />
            <Array as="points">
              <mxPoint x="590" y="1020" />
              <mxPoint x="590" y="1135" />
            </Array>
          </mxGeometry>
        </mxCell>
        <mxCell id="jg1KxQME6RHvL2GBumyO-249" value="" style="rounded=0;whiteSpace=wrap;html=1;" vertex="1" parent="1">
          <mxGeometry x="960" y="735" width="240" height="625" as="geometry" />
        </mxCell>
        <mxCell id="jg1KxQME6RHvL2GBumyO-250" value="singleProject.php" style="text;html=1;align=center;verticalAlign=middle;whiteSpace=wrap;rounded=0;textShadow=1;" vertex="1" parent="1">
          <mxGeometry x="1020" y="1370" width="120" height="30" as="geometry" />
        </mxCell>
        <mxCell id="jg1KxQME6RHvL2GBumyO-251" value="" style="rounded=0;whiteSpace=wrap;html=1;" vertex="1" parent="1">
          <mxGeometry x="990" y="790" width="180" height="130" as="geometry" />
        </mxCell>
        <mxCell id="jg1KxQME6RHvL2GBumyO-252" value="" style="rounded=0;whiteSpace=wrap;html=1;" vertex="1" parent="1">
          <mxGeometry x="1000" y="800" width="160" height="40" as="geometry" />
        </mxCell>
        <mxCell id="jg1KxQME6RHvL2GBumyO-253" value="Customer Name" style="text;html=1;align=center;verticalAlign=middle;whiteSpace=wrap;rounded=0;" vertex="1" parent="1">
          <mxGeometry x="1005" y="804.5" width="150" height="30" as="geometry" />
        </mxCell>
        <mxCell id="jg1KxQME6RHvL2GBumyO-254" style="edgeStyle=orthogonalEdgeStyle;rounded=0;orthogonalLoop=1;jettySize=auto;html=1;exitX=0.5;exitY=1;exitDx=0;exitDy=0;" edge="1" parent="1" source="jg1KxQME6RHvL2GBumyO-253" target="jg1KxQME6RHvL2GBumyO-253">
          <mxGeometry relative="1" as="geometry" />
        </mxCell>
        <mxCell id="jg1KxQME6RHvL2GBumyO-255" value="" style="rounded=0;whiteSpace=wrap;html=1;" vertex="1" parent="1">
          <mxGeometry x="1000" y="860" width="160" height="40" as="geometry" />
        </mxCell>
        <mxCell id="jg1KxQME6RHvL2GBumyO-256" value="Customer Phone" style="text;html=1;align=center;verticalAlign=middle;whiteSpace=wrap;rounded=0;" vertex="1" parent="1">
          <mxGeometry x="1005" y="865" width="150" height="30" as="geometry" />
        </mxCell>
        <mxCell id="jg1KxQME6RHvL2GBumyO-257" value="" style="rounded=0;whiteSpace=wrap;html=1;" vertex="1" parent="1">
          <mxGeometry x="960" y="735" width="240" height="40" as="geometry" />
        </mxCell>
        <mxCell id="jg1KxQME6RHvL2GBumyO-258" value="" style="endArrow=none;html=1;rounded=0;strokeWidth=3;" edge="1" parent="1">
          <mxGeometry width="50" height="50" relative="1" as="geometry">
            <mxPoint x="1170" y="745" as="sourcePoint" />
            <mxPoint x="1190" y="745" as="targetPoint" />
          </mxGeometry>
        </mxCell>
        <mxCell id="jg1KxQME6RHvL2GBumyO-259" value="" style="endArrow=none;html=1;rounded=0;strokeWidth=3;" edge="1" parent="1">
          <mxGeometry width="50" height="50" relative="1" as="geometry">
            <mxPoint x="1170" y="755" as="sourcePoint" />
            <mxPoint x="1190" y="754.76" as="targetPoint" />
          </mxGeometry>
        </mxCell>
        <mxCell id="jg1KxQME6RHvL2GBumyO-260" value="" style="endArrow=none;html=1;rounded=0;strokeWidth=3;" edge="1" parent="1">
          <mxGeometry width="50" height="50" relative="1" as="geometry">
            <mxPoint x="1170" y="765.12" as="sourcePoint" />
            <mxPoint x="1190" y="764.88" as="targetPoint" />
          </mxGeometry>
        </mxCell>
        <mxCell id="jg1KxQME6RHvL2GBumyO-261" value="Username" style="text;html=1;align=center;verticalAlign=middle;whiteSpace=wrap;rounded=0;" vertex="1" parent="1">
          <mxGeometry x="960" y="735" width="80" height="40" as="geometry" />
        </mxCell>
        <mxCell id="jg1KxQME6RHvL2GBumyO-262" value="" style="rounded=0;whiteSpace=wrap;html=1;" vertex="1" parent="1">
          <mxGeometry x="990" y="930" width="180" height="130" as="geometry" />
        </mxCell>
        <mxCell id="jg1KxQME6RHvL2GBumyO-263" value="" style="rounded=0;whiteSpace=wrap;html=1;" vertex="1" parent="1">
          <mxGeometry x="1000" y="940" width="160" height="40" as="geometry" />
        </mxCell>
        <mxCell id="jg1KxQME6RHvL2GBumyO-264" value="Car Brand Car Model" style="text;html=1;align=center;verticalAlign=middle;whiteSpace=wrap;rounded=0;" vertex="1" parent="1">
          <mxGeometry x="1005" y="944.5" width="150" height="30" as="geometry" />
        </mxCell>
        <mxCell id="jg1KxQME6RHvL2GBumyO-265" style="edgeStyle=orthogonalEdgeStyle;rounded=0;orthogonalLoop=1;jettySize=auto;html=1;exitX=0.5;exitY=1;exitDx=0;exitDy=0;" edge="1" parent="1" source="jg1KxQME6RHvL2GBumyO-264" target="jg1KxQME6RHvL2GBumyO-264">
          <mxGeometry relative="1" as="geometry" />
        </mxCell>
        <mxCell id="jg1KxQME6RHvL2GBumyO-266" value="" style="rounded=0;whiteSpace=wrap;html=1;" vertex="1" parent="1">
          <mxGeometry x="1000" y="1000" width="160" height="40" as="geometry" />
        </mxCell>
        <mxCell id="jg1KxQME6RHvL2GBumyO-267" value="Car License" style="text;html=1;align=center;verticalAlign=middle;whiteSpace=wrap;rounded=0;" vertex="1" parent="1">
          <mxGeometry x="1005" y="1005" width="150" height="30" as="geometry" />
        </mxCell>
        <mxCell id="jg1KxQME6RHvL2GBumyO-268" value="Edit Project Info" style="rounded=0;whiteSpace=wrap;html=1;" vertex="1" parent="1">
          <mxGeometry x="1000" y="1320" width="160" height="30" as="geometry" />
        </mxCell>
        <mxCell id="jg1KxQME6RHvL2GBumyO-269" value="Problem Description" style="rounded=0;whiteSpace=wrap;html=1;" vertex="1" parent="1">
          <mxGeometry x="1000" y="1130" width="160" height="80" as="geometry" />
        </mxCell>
        <mxCell id="jg1KxQME6RHvL2GBumyO-270" value="" style="endArrow=classic;html=1;rounded=0;exitX=1;exitY=0.5;exitDx=0;exitDy=0;entryX=-0.005;entryY=0.16;entryDx=0;entryDy=0;entryPerimeter=0;" edge="1" parent="1" source="jg1KxQME6RHvL2GBumyO-41" target="jg1KxQME6RHvL2GBumyO-249">
          <mxGeometry width="50" height="50" relative="1" as="geometry">
            <mxPoint x="590" y="750" as="sourcePoint" />
            <mxPoint x="640" y="700" as="targetPoint" />
            <Array as="points">
              <mxPoint x="600" y="565" />
              <mxPoint x="600" y="720" />
              <mxPoint x="900" y="720" />
              <mxPoint x="900" y="830" />
            </Array>
          </mxGeometry>
        </mxCell>
        <mxCell id="jg1KxQME6RHvL2GBumyO-271" value="Job Description" style="rounded=0;whiteSpace=wrap;html=1;" vertex="1" parent="1">
          <mxGeometry x="1000" y="1225" width="160" height="80" as="geometry" />
        </mxCell>
        <mxCell id="jg1KxQME6RHvL2GBumyO-272" value="" style="rounded=0;whiteSpace=wrap;html=1;" vertex="1" parent="1">
          <mxGeometry x="1241" y="735" width="240" height="625" as="geometry" />
        </mxCell>
        <mxCell id="jg1KxQME6RHvL2GBumyO-273" value="editProject.php" style="text;html=1;align=center;verticalAlign=middle;whiteSpace=wrap;rounded=0;textShadow=1;" vertex="1" parent="1">
          <mxGeometry x="1301" y="1370" width="120" height="30" as="geometry" />
        </mxCell>
        <mxCell id="jg1KxQME6RHvL2GBumyO-274" value="" style="rounded=0;whiteSpace=wrap;html=1;" vertex="1" parent="1">
          <mxGeometry x="1271" y="790" width="180" height="130" as="geometry" />
        </mxCell>
        <mxCell id="jg1KxQME6RHvL2GBumyO-275" value="" style="rounded=0;whiteSpace=wrap;html=1;" vertex="1" parent="1">
          <mxGeometry x="1281" y="800" width="160" height="40" as="geometry" />
        </mxCell>
        <mxCell id="jg1KxQME6RHvL2GBumyO-276" value="Customer Name" style="text;html=1;align=center;verticalAlign=middle;whiteSpace=wrap;rounded=0;" vertex="1" parent="1">
          <mxGeometry x="1286" y="804.5" width="150" height="30" as="geometry" />
        </mxCell>
        <mxCell id="jg1KxQME6RHvL2GBumyO-277" style="edgeStyle=orthogonalEdgeStyle;rounded=0;orthogonalLoop=1;jettySize=auto;html=1;exitX=0.5;exitY=1;exitDx=0;exitDy=0;" edge="1" parent="1" source="jg1KxQME6RHvL2GBumyO-276" target="jg1KxQME6RHvL2GBumyO-276">
          <mxGeometry relative="1" as="geometry" />
        </mxCell>
        <mxCell id="jg1KxQME6RHvL2GBumyO-278" value="" style="rounded=0;whiteSpace=wrap;html=1;" vertex="1" parent="1">
          <mxGeometry x="1281" y="860" width="160" height="40" as="geometry" />
        </mxCell>
        <mxCell id="jg1KxQME6RHvL2GBumyO-279" value="Customer Phone" style="text;html=1;align=center;verticalAlign=middle;whiteSpace=wrap;rounded=0;" vertex="1" parent="1">
          <mxGeometry x="1286" y="865" width="150" height="30" as="geometry" />
        </mxCell>
        <mxCell id="jg1KxQME6RHvL2GBumyO-280" value="" style="rounded=0;whiteSpace=wrap;html=1;" vertex="1" parent="1">
          <mxGeometry x="1241" y="735" width="240" height="40" as="geometry" />
        </mxCell>
        <mxCell id="jg1KxQME6RHvL2GBumyO-281" value="" style="endArrow=none;html=1;rounded=0;strokeWidth=3;" edge="1" parent="1">
          <mxGeometry width="50" height="50" relative="1" as="geometry">
            <mxPoint x="1451" y="745" as="sourcePoint" />
            <mxPoint x="1471" y="745" as="targetPoint" />
          </mxGeometry>
        </mxCell>
        <mxCell id="jg1KxQME6RHvL2GBumyO-282" value="" style="endArrow=none;html=1;rounded=0;strokeWidth=3;" edge="1" parent="1">
          <mxGeometry width="50" height="50" relative="1" as="geometry">
            <mxPoint x="1451" y="755" as="sourcePoint" />
            <mxPoint x="1471" y="754.76" as="targetPoint" />
          </mxGeometry>
        </mxCell>
        <mxCell id="jg1KxQME6RHvL2GBumyO-283" value="" style="endArrow=none;html=1;rounded=0;strokeWidth=3;" edge="1" parent="1">
          <mxGeometry width="50" height="50" relative="1" as="geometry">
            <mxPoint x="1451" y="765.12" as="sourcePoint" />
            <mxPoint x="1471" y="764.88" as="targetPoint" />
          </mxGeometry>
        </mxCell>
        <mxCell id="jg1KxQME6RHvL2GBumyO-284" value="Username" style="text;html=1;align=center;verticalAlign=middle;whiteSpace=wrap;rounded=0;" vertex="1" parent="1">
          <mxGeometry x="1241" y="735" width="80" height="40" as="geometry" />
        </mxCell>
        <mxCell id="jg1KxQME6RHvL2GBumyO-285" value="" style="rounded=0;whiteSpace=wrap;html=1;" vertex="1" parent="1">
          <mxGeometry x="1271" y="930" width="180" height="130" as="geometry" />
        </mxCell>
        <mxCell id="jg1KxQME6RHvL2GBumyO-286" value="" style="rounded=0;whiteSpace=wrap;html=1;" vertex="1" parent="1">
          <mxGeometry x="1281" y="940" width="160" height="40" as="geometry" />
        </mxCell>
        <mxCell id="jg1KxQME6RHvL2GBumyO-287" value="Car Brand Car Model" style="text;html=1;align=center;verticalAlign=middle;whiteSpace=wrap;rounded=0;" vertex="1" parent="1">
          <mxGeometry x="1286" y="944.5" width="150" height="30" as="geometry" />
        </mxCell>
        <mxCell id="jg1KxQME6RHvL2GBumyO-288" style="edgeStyle=orthogonalEdgeStyle;rounded=0;orthogonalLoop=1;jettySize=auto;html=1;exitX=0.5;exitY=1;exitDx=0;exitDy=0;" edge="1" parent="1" source="jg1KxQME6RHvL2GBumyO-287" target="jg1KxQME6RHvL2GBumyO-287">
          <mxGeometry relative="1" as="geometry" />
        </mxCell>
        <mxCell id="jg1KxQME6RHvL2GBumyO-289" value="" style="rounded=0;whiteSpace=wrap;html=1;" vertex="1" parent="1">
          <mxGeometry x="1281" y="1000" width="160" height="40" as="geometry" />
        </mxCell>
        <mxCell id="jg1KxQME6RHvL2GBumyO-290" value="Car License" style="text;html=1;align=center;verticalAlign=middle;whiteSpace=wrap;rounded=0;" vertex="1" parent="1">
          <mxGeometry x="1286" y="1005" width="150" height="30" as="geometry" />
        </mxCell>
        <mxCell id="jg1KxQME6RHvL2GBumyO-291" value="Update Project Info" style="rounded=0;whiteSpace=wrap;html=1;" vertex="1" parent="1">
          <mxGeometry x="1281" y="1320" width="160" height="30" as="geometry" />
        </mxCell>
        <mxCell id="jg1KxQME6RHvL2GBumyO-292" value="Problem Description" style="rounded=0;whiteSpace=wrap;html=1;" vertex="1" parent="1">
          <mxGeometry x="1281" y="1122.5" width="160" height="80" as="geometry" />
        </mxCell>
        <mxCell id="jg1KxQME6RHvL2GBumyO-293" value="Job Description" style="rounded=0;whiteSpace=wrap;html=1;" vertex="1" parent="1">
          <mxGeometry x="1281" y="1222.5" width="160" height="80" as="geometry" />
        </mxCell>
        <mxCell id="jg1KxQME6RHvL2GBumyO-294" value="Arbetstid" style="rounded=0;whiteSpace=wrap;html=1;" vertex="1" parent="1">
          <mxGeometry x="240" y="140" width="120" height="30" as="geometry" />
        </mxCell>
        <mxCell id="jg1KxQME6RHvL2GBumyO-295" value="" style="rounded=0;whiteSpace=wrap;html=1;" vertex="1" parent="1">
          <mxGeometry x="40" y="740" width="240" height="360" as="geometry" />
        </mxCell>
        <mxCell id="jg1KxQME6RHvL2GBumyO-297" value="" style="rounded=0;whiteSpace=wrap;html=1;" vertex="1" parent="1">
          <mxGeometry x="40" y="740" width="240" height="40" as="geometry" />
        </mxCell>
        <mxCell id="jg1KxQME6RHvL2GBumyO-298" value="" style="endArrow=none;html=1;rounded=0;strokeWidth=3;" edge="1" parent="1">
          <mxGeometry width="50" height="50" relative="1" as="geometry">
            <mxPoint x="250" y="750" as="sourcePoint" />
            <mxPoint x="270" y="750" as="targetPoint" />
          </mxGeometry>
        </mxCell>
        <mxCell id="jg1KxQME6RHvL2GBumyO-299" value="" style="endArrow=none;html=1;rounded=0;strokeWidth=3;" edge="1" parent="1">
          <mxGeometry width="50" height="50" relative="1" as="geometry">
            <mxPoint x="250" y="760" as="sourcePoint" />
            <mxPoint x="270" y="759.76" as="targetPoint" />
          </mxGeometry>
        </mxCell>
        <mxCell id="jg1KxQME6RHvL2GBumyO-300" value="" style="endArrow=none;html=1;rounded=0;strokeWidth=3;" edge="1" parent="1">
          <mxGeometry width="50" height="50" relative="1" as="geometry">
            <mxPoint x="250" y="770.1199999999999" as="sourcePoint" />
            <mxPoint x="270" y="769.8800000000001" as="targetPoint" />
          </mxGeometry>
        </mxCell>
        <mxCell id="jg1KxQME6RHvL2GBumyO-301" value="Username" style="text;html=1;align=center;verticalAlign=middle;whiteSpace=wrap;rounded=0;" vertex="1" parent="1">
          <mxGeometry x="40" y="740" width="80" height="40" as="geometry" />
        </mxCell>
        <mxCell id="jg1KxQME6RHvL2GBumyO-302" value="" style="rounded=0;whiteSpace=wrap;html=1;" vertex="1" parent="1">
          <mxGeometry x="70" y="805" width="180" height="115" as="geometry" />
        </mxCell>
        <mxCell id="jg1KxQME6RHvL2GBumyO-303" value="Work hours this week" style="rounded=0;whiteSpace=wrap;html=1;" vertex="1" parent="1">
          <mxGeometry x="80" y="815" width="160" height="35" as="geometry" />
        </mxCell>
        <mxCell id="jg1KxQME6RHvL2GBumyO-304" value="Update" style="rounded=0;whiteSpace=wrap;html=1;" vertex="1" parent="1">
          <mxGeometry x="100" y="870" width="120" height="35" as="geometry" />
        </mxCell>
        <mxCell id="jg1KxQME6RHvL2GBumyO-306" value="mechanicHours.php" style="text;html=1;align=center;verticalAlign=middle;whiteSpace=wrap;rounded=0;textShadow=1;" vertex="1" parent="1">
          <mxGeometry x="100" y="1100" width="120" height="30" as="geometry" />
        </mxCell>
        <mxCell id="jg1KxQME6RHvL2GBumyO-307" value="View All Customers" style="rounded=0;whiteSpace=wrap;html=1;" vertex="1" parent="1">
          <mxGeometry x="370" y="597.5" width="140" height="30" as="geometry" />
        </mxCell>
        <mxCell id="jg1KxQME6RHvL2GBumyO-308" value="Insert New Project" style="rounded=0;whiteSpace=wrap;html=1;" vertex="1" parent="1">
          <mxGeometry x="370" y="670" width="140" height="30" as="geometry" />
        </mxCell>
        <mxCell id="jg1KxQME6RHvL2GBumyO-309" value="" style="rounded=0;whiteSpace=wrap;html=1;" vertex="1" parent="1">
          <mxGeometry x="320" y="1320" width="240" height="410" as="geometry" />
        </mxCell>
        <mxCell id="jg1KxQME6RHvL2GBumyO-310" value="" style="rounded=0;whiteSpace=wrap;html=1;" vertex="1" parent="1">
          <mxGeometry x="320" y="1320" width="240" height="40" as="geometry" />
        </mxCell>
        <mxCell id="jg1KxQME6RHvL2GBumyO-311" value="" style="endArrow=none;html=1;rounded=0;strokeWidth=3;" edge="1" parent="1">
          <mxGeometry width="50" height="50" relative="1" as="geometry">
            <mxPoint x="530" y="1330" as="sourcePoint" />
            <mxPoint x="550" y="1330" as="targetPoint" />
          </mxGeometry>
        </mxCell>
        <mxCell id="jg1KxQME6RHvL2GBumyO-312" value="" style="endArrow=none;html=1;rounded=0;strokeWidth=3;" edge="1" parent="1">
          <mxGeometry width="50" height="50" relative="1" as="geometry">
            <mxPoint x="530" y="1340" as="sourcePoint" />
            <mxPoint x="550" y="1339.76" as="targetPoint" />
          </mxGeometry>
        </mxCell>
        <mxCell id="jg1KxQME6RHvL2GBumyO-313" value="" style="endArrow=none;html=1;rounded=0;strokeWidth=3;" edge="1" parent="1">
          <mxGeometry width="50" height="50" relative="1" as="geometry">
            <mxPoint x="530" y="1350" as="sourcePoint" />
            <mxPoint x="550" y="1350" as="targetPoint" />
          </mxGeometry>
        </mxCell>
        <mxCell id="jg1KxQME6RHvL2GBumyO-314" value="&lt;font style=&quot;font-size: 16px;&quot;&gt;&lt;b&gt;Kunder&lt;/b&gt;&lt;/font&gt;" style="rounded=0;whiteSpace=wrap;html=1;" vertex="1" parent="1">
          <mxGeometry x="320" y="1360" width="240" height="30" as="geometry" />
        </mxCell>
        <mxCell id="jg1KxQME6RHvL2GBumyO-315" value="" style="rounded=0;whiteSpace=wrap;html=1;" vertex="1" parent="1">
          <mxGeometry x="320" y="1390" width="240" height="220" as="geometry" />
        </mxCell>
        <mxCell id="jg1KxQME6RHvL2GBumyO-316" value="Peter Niklas" style="text;html=1;align=center;verticalAlign=middle;whiteSpace=wrap;rounded=0;" vertex="1" parent="1">
          <mxGeometry x="320" y="1390" width="170" height="40" as="geometry" />
        </mxCell>
        <mxCell id="jg1KxQME6RHvL2GBumyO-317" value="" style="shape=mxgraph.arrows2.wedgeArrow;html=1;bendable=0;startWidth=9.166666666666668;fillColor=strokeColor;defaultFillColor=invert;defaultGradientColor=invert;rounded=0;" edge="1" parent="1">
          <mxGeometry width="100" height="100" relative="1" as="geometry">
            <mxPoint x="530" y="1415" as="sourcePoint" />
            <mxPoint x="530" y="1395" as="targetPoint" />
          </mxGeometry>
        </mxCell>
        <mxCell id="jg1KxQME6RHvL2GBumyO-327" value="Uppdatera Info" style="rounded=0;whiteSpace=wrap;html=1;" vertex="1" parent="1">
          <mxGeometry x="390" y="1560" width="100" height="30" as="geometry" />
        </mxCell>
        <mxCell id="jg1KxQME6RHvL2GBumyO-336" value="Peter Niklas&amp;nbsp;" style="rounded=0;whiteSpace=wrap;html=1;" vertex="1" parent="1">
          <mxGeometry x="360" y="1430" width="160" height="30" as="geometry" />
        </mxCell>
        <mxCell id="jg1KxQME6RHvL2GBumyO-337" value="p.n@gmail.com" style="rounded=0;whiteSpace=wrap;html=1;" vertex="1" parent="1">
          <mxGeometry x="360" y="1470" width="160" height="30" as="geometry" />
        </mxCell>
        <mxCell id="jg1KxQME6RHvL2GBumyO-338" value="04691282012" style="rounded=0;whiteSpace=wrap;html=1;" vertex="1" parent="1">
          <mxGeometry x="360" y="1510" width="160" height="30" as="geometry" />
        </mxCell>
        <mxCell id="jg1KxQME6RHvL2GBumyO-339" value="" style="rounded=0;whiteSpace=wrap;html=1;" vertex="1" parent="1">
          <mxGeometry x="320" y="1610" width="240" height="40" as="geometry" />
        </mxCell>
        <mxCell id="jg1KxQME6RHvL2GBumyO-340" value="Gottfrid Eriksson" style="text;html=1;align=center;verticalAlign=middle;whiteSpace=wrap;rounded=0;" vertex="1" parent="1">
          <mxGeometry x="320" y="1610" width="170" height="40" as="geometry" />
        </mxCell>
        <mxCell id="jg1KxQME6RHvL2GBumyO-341" value="" style="shape=mxgraph.arrows2.wedgeArrow;html=1;bendable=0;startWidth=9.166666666666668;fillColor=strokeColor;defaultFillColor=invert;defaultGradientColor=invert;rounded=0;" edge="1" parent="1">
          <mxGeometry width="100" height="100" relative="1" as="geometry">
            <mxPoint x="530" y="1620" as="sourcePoint" />
            <mxPoint x="530" y="1640" as="targetPoint" />
          </mxGeometry>
        </mxCell>
        <mxCell id="jg1KxQME6RHvL2GBumyO-342" value="allCustomers.php" style="text;html=1;align=center;verticalAlign=middle;whiteSpace=wrap;rounded=0;textShadow=1;" vertex="1" parent="1">
          <mxGeometry x="380" y="1730" width="120" height="30" as="geometry" />
        </mxCell>
        <mxCell id="jg1KxQME6RHvL2GBumyO-343" value="" style="rounded=0;whiteSpace=wrap;html=1;" vertex="1" parent="1">
          <mxGeometry x="610" y="1320" width="240" height="410" as="geometry" />
        </mxCell>
        <mxCell id="jg1KxQME6RHvL2GBumyO-344" value="" style="rounded=0;whiteSpace=wrap;html=1;" vertex="1" parent="1">
          <mxGeometry x="610" y="1320" width="240" height="40" as="geometry" />
        </mxCell>
        <mxCell id="jg1KxQME6RHvL2GBumyO-345" value="" style="endArrow=none;html=1;rounded=0;strokeWidth=3;" edge="1" parent="1">
          <mxGeometry width="50" height="50" relative="1" as="geometry">
            <mxPoint x="820" y="1330" as="sourcePoint" />
            <mxPoint x="840" y="1330" as="targetPoint" />
          </mxGeometry>
        </mxCell>
        <mxCell id="jg1KxQME6RHvL2GBumyO-346" value="" style="endArrow=none;html=1;rounded=0;strokeWidth=3;" edge="1" parent="1">
          <mxGeometry width="50" height="50" relative="1" as="geometry">
            <mxPoint x="820" y="1340" as="sourcePoint" />
            <mxPoint x="840" y="1339.76" as="targetPoint" />
          </mxGeometry>
        </mxCell>
        <mxCell id="jg1KxQME6RHvL2GBumyO-347" value="" style="endArrow=none;html=1;rounded=0;strokeWidth=3;" edge="1" parent="1">
          <mxGeometry width="50" height="50" relative="1" as="geometry">
            <mxPoint x="820" y="1350" as="sourcePoint" />
            <mxPoint x="840" y="1350" as="targetPoint" />
          </mxGeometry>
        </mxCell>
        <mxCell id="jg1KxQME6RHvL2GBumyO-348" value="&lt;font style=&quot;font-size: 16px;&quot;&gt;&lt;b&gt;Bilar&lt;/b&gt;&lt;/font&gt;" style="rounded=0;whiteSpace=wrap;html=1;" vertex="1" parent="1">
          <mxGeometry x="610" y="1360" width="240" height="30" as="geometry" />
        </mxCell>
        <mxCell id="jg1KxQME6RHvL2GBumyO-349" value="" style="rounded=0;whiteSpace=wrap;html=1;" vertex="1" parent="1">
          <mxGeometry x="610" y="1390" width="230" height="220" as="geometry" />
        </mxCell>
        <mxCell id="jg1KxQME6RHvL2GBumyO-350" value="Toyota Hilux ABC-123" style="text;html=1;align=center;verticalAlign=middle;whiteSpace=wrap;rounded=0;" vertex="1" parent="1">
          <mxGeometry x="610" y="1390" width="170" height="40" as="geometry" />
        </mxCell>
        <mxCell id="jg1KxQME6RHvL2GBumyO-351" value="" style="shape=mxgraph.arrows2.wedgeArrow;html=1;bendable=0;startWidth=9.166666666666668;fillColor=strokeColor;defaultFillColor=invert;defaultGradientColor=invert;rounded=0;" edge="1" parent="1">
          <mxGeometry width="100" height="100" relative="1" as="geometry">
            <mxPoint x="820" y="1415" as="sourcePoint" />
            <mxPoint x="820" y="1395" as="targetPoint" />
          </mxGeometry>
        </mxCell>
        <mxCell id="jg1KxQME6RHvL2GBumyO-352" value="Uppdatera Info" style="rounded=0;whiteSpace=wrap;html=1;" vertex="1" parent="1">
          <mxGeometry x="680" y="1560" width="100" height="30" as="geometry" />
        </mxCell>
        <mxCell id="jg1KxQME6RHvL2GBumyO-353" value="Toyota" style="rounded=0;whiteSpace=wrap;html=1;" vertex="1" parent="1">
          <mxGeometry x="650" y="1430" width="160" height="30" as="geometry" />
        </mxCell>
        <mxCell id="jg1KxQME6RHvL2GBumyO-354" value="Hilux" style="rounded=0;whiteSpace=wrap;html=1;" vertex="1" parent="1">
          <mxGeometry x="650" y="1470" width="160" height="30" as="geometry" />
        </mxCell>
        <mxCell id="jg1KxQME6RHvL2GBumyO-355" value="ABC-123" style="rounded=0;whiteSpace=wrap;html=1;" vertex="1" parent="1">
          <mxGeometry x="650" y="1510" width="160" height="30" as="geometry" />
        </mxCell>
        <mxCell id="jg1KxQME6RHvL2GBumyO-356" value="" style="rounded=0;whiteSpace=wrap;html=1;" vertex="1" parent="1">
          <mxGeometry x="610" y="1610" width="240" height="40" as="geometry" />
        </mxCell>
        <mxCell id="jg1KxQME6RHvL2GBumyO-357" value="Subaru Impreza JFK-063" style="text;html=1;align=center;verticalAlign=middle;whiteSpace=wrap;rounded=0;" vertex="1" parent="1">
          <mxGeometry x="610" y="1610" width="170" height="40" as="geometry" />
        </mxCell>
        <mxCell id="jg1KxQME6RHvL2GBumyO-358" value="" style="shape=mxgraph.arrows2.wedgeArrow;html=1;bendable=0;startWidth=9.166666666666668;fillColor=strokeColor;defaultFillColor=invert;defaultGradientColor=invert;rounded=0;" edge="1" parent="1">
          <mxGeometry width="100" height="100" relative="1" as="geometry">
            <mxPoint x="820" y="1620" as="sourcePoint" />
            <mxPoint x="820" y="1640" as="targetPoint" />
          </mxGeometry>
        </mxCell>
        <mxCell id="jg1KxQME6RHvL2GBumyO-359" value="allCars.php" style="text;html=1;align=center;verticalAlign=middle;whiteSpace=wrap;rounded=0;textShadow=1;" vertex="1" parent="1">
          <mxGeometry x="670" y="1730" width="120" height="30" as="geometry" />
        </mxCell>
        <mxCell id="jg1KxQME6RHvL2GBumyO-360" value="Create new Customer" style="rounded=0;whiteSpace=wrap;html=1;" vertex="1" parent="1">
          <mxGeometry x="390" y="1680" width="100" height="30" as="geometry" />
        </mxCell>
        <mxCell id="jg1KxQME6RHvL2GBumyO-361" value="Create new car" style="rounded=0;whiteSpace=wrap;html=1;" vertex="1" parent="1">
          <mxGeometry x="675" y="1680" width="100" height="30" as="geometry" />
        </mxCell>
        <mxCell id="jg1KxQME6RHvL2GBumyO-362" value="Project Price" style="rounded=0;whiteSpace=wrap;html=1;" vertex="1" parent="1">
          <mxGeometry x="1281" y="1080" width="160" height="30" as="geometry" />
        </mxCell>
        <mxCell id="jg1KxQME6RHvL2GBumyO-364" value="Project Price" style="rounded=0;whiteSpace=wrap;html=1;" vertex="1" parent="1">
          <mxGeometry x="1000" y="1080" width="160" height="30" as="geometry" />
        </mxCell>
        <mxCell id="jg1KxQME6RHvL2GBumyO-365" value="" style="rounded=0;whiteSpace=wrap;html=1;" vertex="1" parent="1">
          <mxGeometry x="990" y="482.5" width="180" height="207.5" as="geometry" />
        </mxCell>
        <mxCell id="jg1KxQME6RHvL2GBumyO-366" value="Username" style="rounded=0;whiteSpace=wrap;html=1;" vertex="1" parent="1">
          <mxGeometry x="1000" y="492.5" width="160" height="30" as="geometry" />
        </mxCell>
        <mxCell id="jg1KxQME6RHvL2GBumyO-367" value="Email" style="rounded=0;whiteSpace=wrap;html=1;" vertex="1" parent="1">
          <mxGeometry x="1000" y="532.5" width="160" height="30" as="geometry" />
        </mxCell>
        <mxCell id="jg1KxQME6RHvL2GBumyO-368" value="Password" style="rounded=0;whiteSpace=wrap;html=1;" vertex="1" parent="1">
          <mxGeometry x="1000" y="572.5" width="160" height="30" as="geometry" />
        </mxCell>
        <mxCell id="jg1KxQME6RHvL2GBumyO-369" value="Register" style="rounded=0;whiteSpace=wrap;html=1;" vertex="1" parent="1">
          <mxGeometry x="1050" y="647.5" width="60" height="30" as="geometry" />
        </mxCell>
        <mxCell id="jg1KxQME6RHvL2GBumyO-370" value="Register new User" style="text;html=1;align=center;verticalAlign=middle;whiteSpace=wrap;rounded=0;" vertex="1" parent="1">
          <mxGeometry x="1050" y="445" width="60" height="30" as="geometry" />
        </mxCell>
        <mxCell id="jg1KxQME6RHvL2GBumyO-371" value="Role" style="rounded=0;whiteSpace=wrap;html=1;" vertex="1" parent="1">
          <mxGeometry x="1000" y="610" width="160" height="30" as="geometry" />
        </mxCell>
        <mxCell id="jg1KxQME6RHvL2GBumyO-372" value="" style="shape=mxgraph.arrows2.wedgeArrow;html=1;bendable=0;startWidth=9.166666666666668;fillColor=strokeColor;defaultFillColor=invert;defaultGradientColor=invert;rounded=0;" edge="1" parent="1">
          <mxGeometry width="100" height="100" relative="1" as="geometry">
            <mxPoint x="1140" y="620" as="sourcePoint" />
            <mxPoint x="1140" y="635" as="targetPoint" />
          </mxGeometry>
        </mxCell>
      </root>
    </mxGraphModel>
  </diagram>
</mxfile>
